:SAMPLES-PER-SECOND 30
:FULLY-SPECIFIED
:DEGREES
951
root  -9.21467 38.713 26.6257 179.074 72.1916 -177.62
RightUpLeg  -23.2646 -13.4873 4.99605
RightLeg  22.5717 -0.650507 -0.592046
RightFoot  3.68741 1.02945 -7.5802
RightToes  0.00048216 0.542163 -0.142577
Spine  2.95622 -0.0883984 6.17658
Spine1  9.41131 0.165895 0.54835
HEad  -12.314 12.2784 -5.58343
LeftShoulder1  8.23076 -12.1674 -45.7942
LeftArm  -5.57971 10.2358 -27.8137
LeftForeArm  39.0433 -39.9753 -6.92032
LeftHand  -0.25398 0.0180481 5.50724
RightShoulder  5.18422 8.71072 36.4503
RightArm  -10.8241 -19.0067 34.0065
RightForeArm  11.1712 9.76894 5.82758
RightHand  -2.07762 6.75445 -20.075
LeftUpLeg  14.6785 6.53271 6.36534
LeftLeg  33.7927 0.613665 0.828929
LeftFoot  -0.587475 1.22561 -13.665
LeftToes  1.06247e-005 4.65855e-005 -8.18501e-006
952
root  -7.61369 38.6613 26.5387 -175.981 71.017 -172.867
RightUpLeg  -22.4009 -14.1859 6.73113
RightLeg  25.685 -1.426 -0.994407
RightFoot  -0.738757 0.726422 -7.85096
RightToes  0.00048216 0.542163 -0.142577
Spine  2.52711 -0.187544 8.83547
Spine1  9.57448 0.418552 0.734246
HEad  -12.0398 12.2516 -4.58595
LeftShoulder1  8.23648 -12.1643 -45.8361
LeftArm  -4.45165 12.059 -29.3402
LeftForeArm  36.6723 -35.1428 -5.752
LeftHand  -0.25398 0.0180481 5.50724
RightShoulder  5.17768 8.70793 36.4076
RightArm  -10.7384 -18.8022 34.8604
RightForeArm  9.87762 10.458 5.90672
RightHand  -1.96661 6.16772 -19.9571
LeftUpLeg  7.14871 2.98709 7.11439
LeftLeg  45.665 2.26829 2.83201
LeftFoot  11.7041 1.67745 -8.56364
LeftToes  1.06247e-005 4.65855e-005 -8.18501e-006
953
root  -6.10941 38.7048 26.4568 -172.692 69.5887 -169.454
RightUpLeg  -20.4466 -15.8422 8.13754
RightLeg  26.9275 -1.53883 -1.00622
RightFoot  -3.98626 0.479166 -7.85405
RightToes  0.00048216 0.542163 -0.142577
Spine  2.42862 -0.0927061 11.1286
Spine1  10.1161 0.832887 1.12133
HEad  -11.9348 11.1905 -3.30028
LeftShoulder1  8.40184 -12.3493 -46.2234
LeftArm  -1.79391 12.5707 -30.4797
LeftForeArm  32.964 -28.9185 -4.41958
LeftHand  -0.25398 0.0180481 5.50724
RightShoulder  5.17847 8.69549 36.456
RightArm  -9.36927 -17.6916 35.3156
RightForeArm  8.63272 11.4457 6.16745
RightHand  -1.92363 6.05891 -19.7142
LeftUpLeg  -0.121445 -0.451426 7.63555
LeftLeg  55.2322 1.96744 3.52408
LeftFoot  17.1628 1.00827 -4.2842
LeftToes  1.06247e-005 4.65855e-005 -8.18501e-006
954
root  -4.50988 39.0073 26.3814 -173.069 68.9993 -169.411
RightUpLeg  -16.6275 -16.122 7.70387
RightLeg  25.9575 -2.13575 -0.445446
RightFoot  -6.13833 0.309 -7.68269
RightToes  0.00048216 0.542163 -0.142577
Spine  2.65073 0.429346 11.7816
Spine1  10.3314 1.55134 1.09148
HEad  -11.477 9.58723 -2.07827
LeftShoulder1  8.56642 -12.5071 -46.6778
LeftArm  1.44995 12.8748 -31.0974
LeftForeArm  29.9724 -22.6463 -3.63307
LeftHand  -0.25398 0.0180481 5.50724
RightShoulder  5.21945 8.70328 36.756
RightArm  -6.67035 -15.8819 35.2969
RightForeArm  8.0198 12.6951 6.41189
RightHand  -1.88726 6.04553 -19.3767
LeftUpLeg  -5.73185 -2.77166 7.1524
LeftLeg  60.5711 1.75726 3.94736
LeftFoot  15.1284 0.585592 -2.90451
LeftToes  1.06247e-005 4.65855e-005 -8.18501e-006
955
root  -2.87095 39.3386 26.3178 -175.334 69.3104 -171.401
RightUpLeg  -12.2081 -14.267 6.13312
RightLeg  24.2065 -3.81635 0.36721
RightFoot  -8.05647 0.15537 -7.303
RightToes  0.00048216 0.542163 -0.142577
Spine  2.88256 1.16384 11.4588
Spine1  10.2323 2.50464 0.472244
HEad  -10.7189 8.07539 -1.28134
LeftShoulder1  8.64675 -12.6086 -46.8223
LeftArm  0.760216 14.0946 -31.1975
LeftForeArm  32.2543 -17.5574 -4.66887
LeftHand  -0.25398 0.0180481 5.50724
RightShoulder  5.26066 8.74707 36.9345
RightArm  -2.97842 -13.7295 35.4783
RightForeArm  7.1077 14.2939 6.47156
RightHand  -1.83904 5.74002 -19.3923
LeftUpLeg  -10.264 -4.02991 5.91001
LeftLeg  61.8693 1.9808 4.61396
LeftFoot  10.1622 0.500402 -2.94957
LeftToes  1.06247e-005 4.65855e-005 -8.18501e-006
956
root  -1.25041 39.5541 26.2491 -177.658 70.0545 -173.637
RightUpLeg  -8.05325 -12.138 4.76357
RightLeg  22.3722 -5.30947 1.39505
RightFoot  -9.88086 0.0247875 -7.19632
RightToes  0.00048216 0.542163 -0.142577
Spine  3.04025 1.87546 11.2092
Spine1  9.96783 3.48157 -0.570043
HEad  -10.2474 6.88213 -1.06053
LeftShoulder1  8.71278 -12.7494 -46.7705
LeftArm  -1.7226 16.3818 -30.8552
LeftForeArm  36.6056 -14.2017 -5.77552
LeftHand  -0.25398 0.0180481 5.50724
RightShoulder  5.2339 8.76039 36.6769
RightArm  1.54014 -11.4766 36.2128
RightForeArm  4.82027 16.4195 6.22965
RightHand  -1.80711 5.38324 -19.6824
LeftUpLeg  -14.1706 -4.76327 4.42907
LeftLeg  59.9818 2.53677 5.29611
LeftFoot  6.32519 0.187823 -1.42774
LeftToes  1.06247e-005 4.65855e-005 -8.18501e-006
957
root  0.34832 39.7396 26.1759 179.849 71.0078 -175.933
RightUpLeg  -3.65264 -9.96852 3.58282
RightLeg  19.7985 -6.58314 2.62804
RightFoot  -11.2534 -0.0701439 -7.28995
RightToes  0.00048216 0.542163 -0.142577
Spine  3.43397 2.50353 11.0479
Spine1  9.60552 4.37172 -1.91358
HEad  -10.4174 5.91807 -1.1256
LeftShoulder1  8.82009 -12.9129 -46.8777
LeftArm  -2.57666 19.0777 -30.0556
LeftForeArm  39.136 -12.2844 -6.28401
LeftHand  -0.25398 0.0180481 5.50724
RightShoulder  5.15718 8.69524 36.2869
RightArm  6.50168 -9.17841 37.0052
RightForeArm  1.39753 19.2805 5.60176
RightHand  -1.79789 5.32115 -19.75
LeftUpLeg  -16.9893 -5.10151 2.88048
LeftLeg  55.049 3.67015 6.09144
LeftFoot  3.90423 -0.141842 0.851256
LeftToes  1.06247e-005 4.65855e-005 -8.18501e-006
958
root  1.90999 39.8553 26.1008 177.483 72.114 -178.029
RightUpLeg  0.681279 -8.62807 2.79455
RightLeg  17.0966 -6.65927 3.64664
RightFoot  -12.4664 -0.154283 -7.17569
RightToes  0.00048216 0.542163 -0.142577
Spine  3.928 3.08339 11.027
Spine1  9.45293 5.19903 -3.32016
HEad  -11.2338 4.98596 -1.30626
LeftShoulder1  8.90964 -12.9898 -47.1394
LeftArm  -2.33393 21.6325 -29.011
LeftForeArm  40.2582 -11.2269 -6.62225
LeftHand  -0.25398 0.0180481 5.50724
RightShoulder  5.10394 8.60365 36.1701
RightArm  10.0203 -6.80412 37.3044
RightForeArm  -0.986535 22.6584 5.09421
RightHand  -1.81255 5.46531 -19.5778
LeftUpLeg  -18.5206 -4.68588 1.59035
LeftLeg  47.0177 5.24218 6.39707
LeftFoot  2.10746 -0.0359648 0.174605
LeftToes  1.06247e-005 4.65855e-005 -8.18501e-006
959
root  3.46795 39.8152 26.0215 176.257 73.3972 -179.319
RightUpLeg  4.18028 -8.31766 2.60744
RightLeg  15.3044 -5.45896 4.09005
RightFoot  -13.8569 -0.250321 -7.11039
RightToes  0.00048216 0.542163 -0.142577
Spine  3.81858 3.73069 11.2279
Spine1  9.72141 6.01239 -4.57016
HEad  -12.2456 3.82221 -1.7299
LeftShoulder1  8.89483 -12.9379 -47.2104
LeftArm  -2.08804 24.132 -28.3062
LeftForeArm  40.681 -10.864 -6.73098
LeftHand  -0.25398 0.0180481 5.50724
RightShoulder  5.09662 8.56611 36.2385
RightArm  10.5501 -4.40963 37.2277
RightForeArm  -0.527194 25.87 5.55272
RightHand  -1.83118 5.58971 -19.5627
LeftUpLeg  -19.2006 -2.8945 0.469907
LeftLeg  36.3624 6.15391 5.22013
LeftFoot  1.44305 0.183675 -1.7052
LeftToes  1.06247e-005 4.65855e-005 -8.18501e-006
960
root  5.04139 39.707 25.9461 175.34 74.7756 179.331
RightUpLeg  7.13695 -8.13029 2.58294
RightLeg  13.8003 -4.18539 4.21985
RightFoot  -15.1175 -0.352504 -7.56888
RightToes  0.00048216 0.542163 -0.142577
Spine  3.17723 4.42658 11.1551
Spine1  10.1758 6.79355 -5.74243
HEad  -12.9033 2.44447 -2.30008
LeftShoulder1  8.76503 -12.784 -46.9549
LeftArm  -2.43791 26.7986 -28.1314
LeftForeArm  40.5464 -11.0225 -6.5487
LeftHand  -0.25398 0.0180481 5.50724
RightShoulder  5.11867 8.60639 36.2792
RightArm  10.5198 -2.15095 37.2582
RightForeArm  0.555995 28.4082 6.11871
RightHand  -1.84829 5.65012 -19.6363
LeftUpLeg  -19.2365 1.32985 -1.54769
LeftLeg  24.03 4.75813 2.92791
LeftFoot  1.92169 0.158678 -1.46806
LeftToes  1.06247e-005 4.65855e-005 -8.18501e-006
961
root  6.6054 39.5725 25.8574 173.448 75.904 177.217
RightUpLeg  10.1869 -8.14067 2.04126
RightLeg  12.5481 -2.97055 4.5447
RightFoot  -16.4083 -0.461777 -7.93529
RightToes  0.00048216 0.542163 -0.142577
Spine  2.96116 4.85617 10.8181
Spine1  10.4661 7.45253 -7.02336
HEad  -13.2876 1.15118 -2.59361
LeftShoulder1  8.58485 -12.5665 -46.6035
LeftArm  -3.1882 29.3751 -28.0261
LeftForeArm  39.7035 -11.278 -6.25466
LeftHand  -0.25398 0.0180481 5.50724
RightShoulder  5.17007 8.70236 36.3656
RightArm  10.468 -0.103558 37.5414
RightForeArm  1.93711 29.8537 6.39759
RightHand  -1.83286 5.71235 -19.3751
LeftUpLeg  -18.3326 5.95146 -3.90251
LeftLeg  11.7927 4.14179 0.0682718
LeftFoot  2.36534 0.196509 -1.75577
LeftToes  1.06247e-005 4.65855e-005 -8.18501e-006
962
root  8.20063 39.3216 25.7241 172.092 76.5529 176.145
RightUpLeg  13.2765 -8.80914 1.17353
RightLeg  12.6402 -1.26662 5.10091
RightFoot  -17.9812 -0.544278 -7.29699
RightToes  0.00048216 0.542163 -0.142577
Spine  3.27387 4.92218 10.9724
Spine1  10.6116 7.93558 -8.38632
HEad  -13.7947 0.137345 -2.37943
LeftShoulder1  8.41509 -12.3425 -46.3192
LeftArm  -3.99688 31.3838 -27.6284
LeftForeArm  38.4682 -11.288 -6.0176
LeftHand  -0.25398 0.0180481 5.50724
RightShoulder  5.22888 8.79801 36.5108
RightArm  10.115 1.57027 38.1717
RightForeArm  3.39911 30.157 6.3937
RightHand  -1.81282 5.84692 -18.9539
LeftUpLeg  -16.4473 2.40168 -2.8955
LeftLeg  2.03064 14.6212 -4.9495
LeftFoot  1.94884 0.491656 -4.33323
LeftToes  1.06247e-005 4.65855e-005 -8.18501e-006
963
root  9.8999 38.9754 25.5661 172.774 76.8194 177.115
RightUpLeg  16.0689 -10.3308 0.476498
RightLeg  13.9027 1.15814 5.49614
RightFoot  -19.0668 -0.548849 -6.20397
RightToes  0.00048216 0.542163 -0.142577
Spine  3.03953 4.97734 11.39
Spine1  10.9654 8.30713 -9.37446
HEad  -14.504 -0.888095 -1.72412
LeftShoulder1  8.25007 -12.1371 -45.9965
LeftArm  -4.83788 32.7303 -27.1129
LeftForeArm  37.5281 -11.0476 -5.81639
LeftHand  -0.25398 0.0180481 5.50724
RightShoulder  5.2527 8.83708 36.5678
RightArm  9.56386 2.52354 39.1377
RightForeArm  4.04728 29.6282 6.22757
RightHand  -1.83543 6.00475 -18.9286
LeftUpLeg  -15.247 0.456579 -2.91434
LeftLeg  -2.73745 23.6931 -8.67298
LeftFoot  1.37093 0.537493 -4.88035
LeftToes  1.06247e-005 4.65855e-005 -8.18501e-006
964
root  11.7304 38.6801 25.4319 172.797 76.7841 176.992
RightUpLeg  18.5708 -12.9211 -0.795326
RightLeg  15.4461 4.46921 5.65375
RightFoot  -19.0765 -0.489122 -5.35999
RightToes  0.00048216 0.542163 -0.142577
Spine  1.86284 5.25427 10.6005
Spine1  11.6325 8.63503 -9.38616
HEad  -14.4821 -2.32049 -1.04831
LeftShoulder1  8.04616 -11.8806 -45.5931
LeftArm  -5.69981 33.5263 -26.5996
LeftForeArm  37.1752 -10.6035 -5.61516
LeftHand  -0.25398 0.0180481 5.50724
RightShoulder  5.28862 8.85683 36.784
RightArm  9.23812 2.56383 39.9839
RightForeArm  3.70301 28.5692 5.98915
RightHand  -1.86907 6.08234 -19.1393
LeftUpLeg  -15.5727 1.01826 -4.66562
LeftLeg  -0.732648 26.7904 -8.2621
LeftFoot  2.26936 -0.0890962 0.504748
LeftToes  1.06247e-005 4.65855e-005 -8.18501e-006
965
root  13.6639 38.4568 25.3179 169.465 76.6273 173.606
RightUpLeg  21.0176 -17.6156 -4.29033
RightLeg  18.5233 10.6619 6.23904
RightFoot  -18.064 -0.312768 -3.37013
RightToes  0.00048216 0.542163 -0.142577
Spine  0.723387 5.67091 8.20616
Spine1  12.0626 8.88472 -8.68884
HEad  -14.0415 -3.6659 -0.0312678
LeftShoulder1  7.83141 -11.5615 -45.3049
LeftArm  -6.34548 33.526 -25.7781
LeftForeArm  37.1322 -9.79832 -5.47542
LeftHand  -0.25398 0.0180481 5.50724
RightShoulder  5.44088 8.96467 37.6059
RightArm  9.30011 1.91579 40.4011
RightForeArm  3.3317 26.819 5.57564
RightHand  -1.85658 6.15086 -18.9099
LeftUpLeg  -16.8974 4.83159 -8.21927
LeftLeg  6.49393 21.9807 -3.78817
LeftFoot  3.59846 -1.22715 9.22851
LeftToes  1.06247e-005 4.65855e-005 -8.18501e-006
